<svg width="124" height="124" viewBox="0 0 124 124" fill="none" xmlns="http://www.w3.org/2000/svg">
<path d="M38.75 31C37.7223 31 36.7367 31.4083 36.01 32.135C35.2833 32.8617 34.875 33.8473 34.875 34.875C34.875 35.9027 35.2833 36.8883 36.01 37.615C36.7367 38.3417 37.7223 38.75 38.75 38.75H85.25C86.2777 38.75 87.2633 38.3417 87.99 37.615C88.7167 36.8883 89.125 35.9027 89.125 34.875C89.125 33.8473 88.7167 32.8617 87.99 32.135C87.2633 31.4083 86.2777 31 85.25 31H38.75ZM34.875 50.375C34.875 49.3473 35.2833 48.3617 36.01 47.635C36.7367 46.9083 37.7223 46.5 38.75 46.5H85.25C86.2777 46.5 87.2633 46.9083 87.99 47.635C88.7167 48.3617 89.125 49.3473 89.125 50.375C89.125 51.4027 88.7167 52.3883 87.99 53.115C87.2633 53.8417 86.2777 54.25 85.25 54.25H38.75C37.7223 54.25 36.7367 53.8417 36.01 53.115C35.2833 52.3883 34.875 51.4027 34.875 50.375ZM38.75 62C37.7223 62 36.7367 62.4083 36.01 63.135C35.2833 63.8617 34.875 64.8473 34.875 65.875C34.875 66.9027 35.2833 67.8883 36.01 68.615C36.7367 69.3417 37.7223 69.75 38.75 69.75H85.25C86.2777 69.75 87.2633 69.3417 87.99 68.615C88.7167 67.8883 89.125 66.9027 89.125 65.875C89.125 64.8473 88.7167 63.8617 87.99 63.135C87.2633 62.4083 86.2777 62 85.25 62H38.75ZM38.75 77.5C37.7223 77.5 36.7367 77.9083 36.01 78.635C35.2833 79.3617 34.875 80.3473 34.875 81.375C34.875 82.4027 35.2833 83.3883 36.01 84.115C36.7367 84.8417 37.7223 85.25 38.75 85.25H62C63.0277 85.25 64.0133 84.8417 64.74 84.115C65.4667 83.3883 65.875 82.4027 65.875 81.375C65.875 80.3473 65.4667 79.3617 64.74 78.635C64.0133 77.9083 63.0277 77.5 62 77.5H38.75Z" fill="#FF9000"/>
<path d="M15.5 15.5C15.5 11.3891 17.133 7.44666 20.0398 4.53984C22.9467 1.63303 26.8891 0 31 0L93 0C97.1109 0 101.053 1.63303 103.96 4.53984C106.867 7.44666 108.5 11.3891 108.5 15.5V108.5C108.5 112.611 106.867 116.553 103.96 119.46C101.053 122.367 97.1109 124 93 124H31C26.8891 124 22.9467 122.367 20.0398 119.46C17.133 116.553 15.5 112.611 15.5 108.5V15.5ZM93 7.75H31C28.9446 7.75 26.9733 8.56651 25.5199 10.0199C24.0665 11.4733 23.25 13.4446 23.25 15.5V108.5C23.25 110.555 24.0665 112.527 25.5199 113.98C26.9733 115.433 28.9446 116.25 31 116.25H93C95.0554 116.25 97.0267 115.433 98.4801 113.98C99.9335 112.527 100.75 110.555 100.75 108.5V15.5C100.75 13.4446 99.9335 11.4733 98.4801 10.0199C97.0267 8.56651 95.0554 7.75 93 7.75Z" fill="#FF9000"/>
</svg>
