<svg width="220" height="87" viewBox="0 0 220 87" fill="none" xmlns="http://www.w3.org/2000/svg">
<path d="M63.7495 65.8317H79.5863L78.8518 60.9123H63.7692L63.7495 65.8317ZM98.8485 43.2076H114.685V38.6828H98.8485V43.2076ZM98.8485 54.5196H114.685V49.9948H98.8485V54.5196ZM98.8485 65.8317H114.685V61.3069H98.8485V65.8317ZM145.265 65.8317H149.79V38.6828H146.321L133.953 49.5424V54.5196H138.478V51.6163L145.265 45.6585V65.8317ZM169.058 60.1756H180.37V65.8317H184.895V52.2573C184.895 48.4866 183.343 45.2816 180.238 42.6421C177.134 40.0025 173.407 38.6828 169.058 38.6828V43.2076C171.195 43.283 173.181 43.7858 175.016 44.7159C177.027 45.7215 178.523 47.0916 179.503 48.8261C180.081 49.907 180.37 51.0505 180.37 52.2573V55.6509H169.058V60.1756ZM204.163 43.2076H220V38.6828H204.163V43.2076ZM204.163 54.5196H220V49.9948H204.163V54.5196ZM204.163 65.8317H220V61.3069H204.163V65.8317Z" fill="#2B5FA7"/>
<path d="M46.7808 57.9132C46.7808 58.5417 47.001 59.0757 47.4407 59.5159C47.8806 59.9559 48.4148 60.1756 49.0433 60.1756C49.6717 60.1756 50.2057 59.9559 50.6459 59.5159C51.0857 59.0757 51.3056 58.5417 51.3056 57.9132C51.3056 57.285 51.0857 56.7506 50.6459 56.3107C50.2057 55.8708 49.6717 55.6509 49.0433 55.6509C48.4148 55.6509 47.8806 55.8708 47.4407 56.3107C47.001 56.7506 46.7808 57.285 46.7808 57.9132ZM46.7808 46.6013C46.7808 47.2298 47.001 47.7638 47.4407 48.2037C47.8806 48.6436 48.4148 48.8636 49.0433 48.8636C49.6717 48.8636 50.2057 48.6436 50.6459 48.2037C51.0857 47.7638 51.3056 47.2298 51.3056 46.6013C51.3056 45.9729 51.0857 45.4386 50.6459 44.9987C50.2057 44.5588 49.6717 44.3387 49.0433 44.3387C48.4148 44.3387 47.8806 44.5588 47.4407 44.9987C47.001 45.4386 46.7808 45.9729 46.7808 46.6013ZM46.7808 40.9454C46.7808 41.5737 47.001 42.1079 47.4407 42.5476C47.8806 42.9876 48.4148 43.2076 49.0433 43.2076C49.6717 43.2076 50.2057 42.9876 50.6459 42.5476C51.0857 42.1079 51.3056 41.5737 51.3056 40.9454C51.3056 40.3169 51.0857 39.7825 50.6459 39.3427C49.8306 38.5273 48.0375 38.746 47.4407 39.3427C47.001 39.7825 46.7808 40.3169 46.7808 40.9454ZM46.7808 52.2573C46.7808 52.8858 47.001 53.42 47.4407 53.8597C47.8806 54.2996 48.4148 54.5196 49.0433 54.5196C49.6717 54.5196 50.2057 54.2996 50.6459 53.8597C51.0857 53.42 51.3056 52.8858 51.3056 52.2573C51.3056 51.6288 51.0857 51.0947 50.6459 50.6548C50.2057 50.2147 49.6717 49.9948 49.0433 49.9948C48.4148 49.9948 47.8806 50.2147 47.4407 50.6548C47.001 51.0947 46.7808 51.6288 46.7808 52.2573ZM58.0928 63.5694C58.0928 64.1978 58.3129 64.7321 58.7528 65.1717C59.1928 65.6117 59.7269 65.8317 60.3554 65.8317C60.9837 65.8317 61.518 65.6117 61.958 65.1717C62.3979 64.7321 62.6176 64.1978 62.6176 63.5694C62.6176 62.941 62.3979 62.4066 61.958 61.9668C61.518 61.5269 60.9837 61.3069 60.3554 61.3069C59.7269 61.3069 59.1928 61.5269 58.7528 61.9668C58.3129 62.4066 58.0928 62.941 58.0928 63.5694ZM46.7808 63.5694C46.7808 64.1978 47.001 64.7321 47.4407 65.1717C47.8806 65.6117 48.4148 65.8317 49.0433 65.8317C49.6717 65.8317 50.2057 65.6117 50.6459 65.1717C51.0857 64.7321 51.3056 64.1978 51.3056 63.5694C51.3056 62.941 51.0857 62.4066 50.6459 61.9668C50.2057 61.5269 49.6717 61.3069 49.0433 61.3069C48.4148 61.3069 47.8806 61.5269 47.4407 61.9668C47.001 62.4066 46.7808 62.941 46.7808 63.5694ZM52.4368 63.5694C52.4368 64.1978 52.657 64.7321 53.0967 65.1717C53.5368 65.6117 54.071 65.8317 54.6993 65.8317C55.3277 65.8317 55.8621 65.6117 56.3018 65.1717C56.7416 64.7321 56.9617 64.1978 56.9617 63.5694C56.9617 62.941 56.7416 62.4066 56.3018 61.9668C55.8621 61.5269 55.3277 61.3069 54.6993 61.3069C54.071 61.3069 53.5368 61.5269 53.0967 61.9668C52.657 62.4066 52.4368 62.941 52.4368 63.5694ZM81.8796 52.2573C81.8796 52.8858 82.0995 53.42 82.5394 53.8597C82.9795 54.2996 83.5136 54.5196 84.1421 54.5196C84.7706 54.5196 85.3046 54.2996 85.7445 53.8597C86.1845 53.42 86.4045 52.8858 86.4045 52.2573C86.4045 51.6288 86.1845 51.0947 85.7445 50.6548C85.3046 50.2147 84.7706 49.9948 84.1421 49.9948C83.5136 49.9948 82.9795 50.2147 82.5394 50.6548C82.0995 51.0947 81.8796 51.6288 81.8796 52.2573ZM83.0108 46.6013C83.0108 47.2298 83.2306 47.7638 83.6707 48.2037C84.1106 48.6436 84.6449 48.8636 85.2734 48.8636C85.9015 48.8636 86.436 48.6436 86.8757 48.2037C87.3157 47.7638 87.5356 47.2298 87.5356 46.6013C87.5356 45.9729 87.3157 45.4386 86.8757 44.9987C86.436 44.5588 85.9015 44.3387 85.2734 44.3387C84.6449 44.3387 84.1106 44.5588 83.6707 44.9987C83.2306 45.4386 83.0108 45.9729 83.0108 46.6013ZM93.1917 52.2573C93.1917 52.8858 93.4116 53.42 93.8515 53.8597C94.2914 54.2996 94.8257 54.5196 95.4541 54.5196C96.0825 54.5196 96.6166 54.2996 97.0567 53.8597C97.4967 53.42 97.7166 52.8858 97.7166 52.2573C97.7166 51.6288 97.4967 51.0947 97.0567 50.6548C96.6166 50.2147 96.0825 49.9948 95.4541 49.9948C94.8257 49.9948 94.2914 50.2147 93.8515 50.6548C93.4116 51.0947 93.1917 51.6288 93.1917 52.2573ZM87.5356 62.4382C87.5356 63.0666 87.7556 63.6008 88.1955 64.0408C88.6354 64.4806 89.1696 64.7006 89.798 64.7006C90.4265 64.7006 90.9605 64.4806 91.4006 64.0408C91.8406 63.6008 92.0605 63.0666 92.0605 62.4382C92.0605 61.8097 91.8406 61.2754 91.4006 60.8355C90.9605 60.3956 90.4265 60.1756 89.798 60.1756C89.1696 60.1756 88.6354 60.3956 88.1955 60.8355C87.7556 61.2754 87.5356 61.8097 87.5356 62.4382ZM83.0108 57.9132C83.0108 57.285 83.2306 56.7506 83.6707 56.3107C84.1106 55.8708 84.6449 55.6509 85.2734 55.6509C85.9015 55.6509 86.436 55.8708 86.8757 56.3107C87.3157 56.7506 87.5356 57.285 87.5356 57.9132C87.5356 58.5417 87.3157 59.0757 86.8757 59.5159C86.436 59.9559 85.9015 60.1756 85.2734 60.1756C84.6449 60.1756 84.1106 59.9559 83.6707 59.5159C83.2306 59.0757 83.0108 58.5417 83.0108 57.9132ZM93.1917 63.5694C93.1917 64.1978 93.4116 64.7321 93.8515 65.1717C94.2914 65.6117 94.8257 65.8317 95.4541 65.8317C96.0825 65.8317 96.6166 65.6117 97.0567 65.1717C97.4967 64.7321 97.7166 64.1978 97.7166 63.5694C97.7166 62.941 97.4967 62.4066 97.0567 61.9668C96.6166 61.5269 96.0825 61.3069 95.4541 61.3069C94.8257 61.3069 94.2914 61.5269 93.8515 61.9668C93.4116 62.4066 93.1917 62.941 93.1917 63.5694ZM93.1917 40.9454C93.1917 41.5737 93.4116 42.1079 93.8515 42.5476C94.2914 42.9876 94.8257 43.2076 95.4541 43.2076C96.0825 43.2076 96.6166 42.9876 97.0567 42.5476C97.4967 42.1079 97.7166 41.5737 97.7166 40.9454C97.7166 40.3169 97.4967 39.7825 97.0567 39.3427C96.6166 38.9028 96.0825 38.6828 95.4541 38.6828C94.8257 38.6828 94.2914 38.9028 93.8515 39.3427C93.4116 39.7825 93.1917 40.3169 93.1917 40.9454ZM87.5356 52.2573C87.5356 52.8858 87.7556 53.42 88.1955 53.8597C88.6354 54.2996 89.1696 54.5196 89.798 54.5196C90.4265 54.5196 90.9605 54.2996 91.4006 53.8597C91.8406 53.42 92.0605 52.8858 92.0605 52.2573C92.0605 51.6288 91.8406 51.0947 91.4006 50.6548C90.9605 50.2147 90.4265 49.9948 89.798 49.9948C89.1696 49.9948 88.6354 50.2147 88.1955 50.6548C87.7556 51.0947 87.5356 51.6288 87.5356 52.2573ZM87.5356 42.0763C87.5356 41.4478 87.7556 40.9138 88.1955 40.4739C88.6354 40.0341 89.1696 39.8141 89.798 39.8141C90.4265 39.8141 90.9605 40.0341 91.4006 40.4739C91.8406 40.9138 92.0605 41.4478 92.0605 42.0763C92.0605 42.705 91.8406 43.2389 91.4006 43.679C90.9605 44.1189 90.4265 44.3387 89.798 44.3387C89.1696 44.3387 88.6354 44.1189 88.1955 43.679C87.7556 43.2389 87.5356 42.705 87.5356 42.0763ZM124.903 46.6013C124.903 47.2298 125.123 47.7638 125.563 48.2037C126.003 48.6436 126.537 48.8636 127.165 48.8636C127.794 48.8636 128.328 48.6436 128.768 48.2037C129.208 47.7638 129.428 47.2298 129.428 46.6013C129.428 45.9729 129.208 45.4386 128.768 44.9987C128.328 44.5588 127.794 44.3387 127.165 44.3387C126.537 44.3387 126.003 44.5588 125.563 44.9987C125.123 45.4386 124.903 45.9729 124.903 46.6013ZM116.985 57.9132C116.985 58.5417 117.204 59.0757 117.645 59.5159C118.084 59.9559 118.618 60.1756 119.247 60.1756C119.875 60.1756 120.41 59.9559 120.85 59.5159C121.29 59.0757 121.509 58.5417 121.509 57.9132C121.509 57.285 121.29 56.7506 120.85 56.3107C120.41 55.8708 119.875 55.6509 119.247 55.6509C118.618 55.6509 118.084 55.8708 117.645 56.3107C117.204 56.7506 116.985 57.285 116.985 57.9132ZM128.297 52.2573C128.297 52.8858 128.516 53.42 128.957 53.8597C129.397 54.2996 129.931 54.5196 130.559 54.5196C131.188 54.5196 131.722 54.2996 132.162 53.8597C132.602 53.42 132.821 52.8858 132.821 52.2573C132.821 51.6288 132.602 51.0947 132.162 50.6548C131.722 50.2147 131.188 49.9948 130.559 49.9948C129.931 49.9948 129.397 50.2147 128.957 50.6548C128.516 51.0947 128.297 51.6288 128.297 52.2573ZM116.985 40.9454C116.985 41.5737 117.204 42.1079 117.645 42.5476C118.084 42.9876 118.618 43.2076 119.247 43.2076C119.875 43.2076 120.41 42.9876 120.85 42.5476C121.29 42.1079 121.509 41.5737 121.509 40.9454C121.509 40.3169 121.29 39.7825 120.85 39.3427C120.41 38.9028 119.875 38.6828 119.247 38.6828C118.618 38.6828 118.084 38.9028 117.645 39.3427C117.204 39.7825 116.985 40.3169 116.985 40.9454ZM116.985 63.5694C116.985 64.1978 117.204 64.7321 117.645 65.1717C118.084 65.6117 118.618 65.8317 119.247 65.8317C119.875 65.8317 120.41 65.6117 120.85 65.1717C121.29 64.7321 121.509 64.1978 121.509 63.5694C121.509 62.941 121.29 62.4066 120.85 61.9668C120.41 61.5269 119.875 61.3069 119.247 61.3069C118.618 61.3069 118.084 61.5269 117.645 61.9668C117.204 62.4066 116.985 62.941 116.985 63.5694ZM116.985 52.2573C116.985 52.8858 117.204 53.42 117.645 53.8597C118.084 54.2996 118.618 54.5196 119.247 54.5196C119.875 54.5196 120.41 54.2996 120.85 53.8597C121.29 53.42 121.509 52.8858 121.509 52.2573C121.509 51.6288 121.29 51.0947 120.85 50.6548C120.41 50.2147 119.875 49.9948 119.247 49.9948C118.618 49.9948 118.084 50.2147 117.645 50.6548C117.204 51.0947 116.985 51.6288 116.985 52.2573ZM116.985 46.6013C116.985 47.2298 117.204 47.7638 117.645 48.2037C118.084 48.6436 118.618 48.8636 119.247 48.8636C119.875 48.8636 120.41 48.6436 120.85 48.2037C121.29 47.7638 121.509 47.2298 121.509 46.6013C121.509 45.9729 121.29 45.4386 120.85 44.9987C120.41 44.5588 119.875 44.3387 119.247 44.3387C118.618 44.3387 118.084 44.5588 117.645 44.9987C117.204 45.4386 116.985 45.9729 116.985 46.6013ZM122.641 40.9454C122.641 41.5737 122.861 42.1079 123.3 42.5476C123.74 42.9876 124.275 43.2076 124.903 43.2076C125.531 43.2076 126.066 42.9876 126.506 42.5476C126.945 42.1079 127.165 41.5737 127.165 40.9454C127.165 40.3169 126.945 39.7825 126.506 39.3427C126.066 38.9028 125.531 38.6828 124.903 38.6828C124.275 38.6828 123.74 38.9028 123.3 39.3427C122.861 39.7825 122.641 40.3169 122.641 40.9454ZM153.221 46.6013C153.221 47.2298 153.441 47.7638 153.881 48.2037C154.321 48.6436 154.855 48.8636 155.483 48.8636C156.112 48.8636 156.646 48.6436 157.086 48.2037C157.526 47.7638 157.746 47.2298 157.746 46.6013C157.746 45.9729 157.526 45.4386 157.086 44.9987C156.646 44.5588 156.112 44.3387 155.483 44.3387C154.855 44.3387 154.321 44.5588 153.881 44.9987C153.441 45.4386 153.221 45.9729 153.221 46.6013ZM163.402 40.9454C163.402 41.5737 163.622 42.1079 164.062 42.5476C164.502 42.9876 165.036 43.2076 165.664 43.2076C166.292 43.2076 166.827 42.9876 167.267 42.5476C167.707 42.1079 167.927 41.5737 167.927 40.9454C167.927 40.3169 167.707 39.7825 167.267 39.3427C166.827 38.9028 166.292 38.6828 165.664 38.6828C165.036 38.6828 164.502 38.9028 164.062 39.3427C163.622 39.7825 163.402 40.3169 163.402 40.9454ZM152.089 57.9132C152.089 58.5417 152.31 59.0757 152.749 59.5159C153.19 59.9559 153.724 60.1756 154.352 60.1756C154.98 60.1756 155.515 59.9559 155.955 59.5159C156.395 59.0757 156.615 58.5417 156.615 57.9132C156.615 57.285 156.395 56.7506 155.955 56.3107C155.515 55.8708 154.98 55.6509 154.352 55.6509C153.724 55.6509 153.19 55.8708 152.749 56.3107C152.31 56.7506 152.089 57.285 152.089 57.9132ZM152.089 63.5694C152.089 64.1978 152.31 64.7321 152.749 65.1717C153.19 65.6117 153.724 65.8317 154.352 65.8317C154.98 65.8317 155.515 65.6117 155.955 65.1717C156.395 64.7321 156.615 64.1978 156.615 63.5694C156.615 62.941 156.395 62.4066 155.955 61.9668C155.515 61.5269 154.98 61.3069 154.352 61.3069C153.724 61.3069 153.19 61.5269 152.749 61.9668C152.31 62.4066 152.089 62.941 152.089 63.5694ZM157.746 42.0763C157.746 41.4478 157.965 40.9138 158.406 40.4739C158.846 40.0341 159.38 39.8141 160.008 39.8141C160.636 39.8141 161.171 40.0341 161.611 40.4739C162.051 40.9138 162.27 41.4478 162.27 42.0763C161.843 43.5847 161.089 44.3387 160.008 44.3387C159.38 44.3387 158.846 44.1189 158.406 43.679C157.965 43.2389 157.746 42.705 157.746 42.0763ZM152.089 52.2573C152.089 52.8858 152.31 53.42 152.749 53.8597C153.19 54.2996 153.724 54.5196 154.352 54.5196C154.98 54.5196 155.515 54.2996 155.955 53.8597C156.395 53.42 156.615 52.8858 156.615 52.2573C156.615 51.6288 156.395 51.0947 155.955 50.6548C155.515 50.2147 154.98 49.9948 154.352 49.9948C153.724 49.9948 153.19 50.2147 152.749 50.6548C152.31 51.0947 152.089 51.6288 152.089 52.2573ZM157.746 57.9132C157.746 58.5417 157.965 59.0757 158.406 59.5159C158.846 59.9559 159.38 60.1756 160.008 60.1756C160.636 60.1756 161.171 59.9559 161.611 59.5159C162.051 59.0757 162.27 58.5417 162.27 57.9132C162.27 57.285 162.051 56.7506 161.611 56.3107C161.171 55.8708 160.636 55.6509 160.008 55.6509C159.38 55.6509 158.846 55.8708 158.406 56.3107C157.965 56.7506 157.746 57.285 157.746 57.9132ZM163.402 57.9132C163.402 58.5417 163.622 59.0757 164.062 59.5159C164.502 59.9559 165.036 60.1756 165.664 60.1756C166.292 60.1756 166.827 59.9559 167.267 59.5159C167.707 59.0757 167.927 58.5417 167.927 57.9132C167.927 57.285 167.707 56.7506 167.267 56.3107C166.827 55.8708 166.292 55.6509 165.664 55.6509C165.036 55.6509 164.502 55.8708 164.062 56.3107C163.622 56.7506 163.402 57.285 163.402 57.9132ZM187.195 52.2573C187.195 52.8858 187.415 53.42 187.855 53.8597C188.295 54.2996 188.828 54.5196 189.457 54.5196C190.086 54.5196 190.62 54.2996 191.059 53.8597C191.499 53.42 191.719 52.8858 191.719 52.2573C191.719 51.6288 191.499 51.0947 191.059 50.6548C190.62 50.2147 190.086 49.9948 189.457 49.9948C188.828 49.9948 188.295 50.2147 187.855 50.6548C187.415 51.0947 187.195 51.6288 187.195 52.2573ZM188.326 46.6013C188.326 47.2298 188.546 47.7638 188.986 48.2037C189.426 48.6436 189.96 48.8636 190.588 48.8636C191.217 48.8636 191.751 48.6436 192.191 48.2037C192.631 47.7638 192.851 47.2298 192.851 46.6013C192.851 45.9729 192.631 45.4386 192.191 44.9987C191.751 44.5588 191.217 44.3387 190.588 44.3387C189.96 44.3387 189.426 44.5588 188.986 44.9987C188.546 45.4386 188.326 45.9729 188.326 46.6013ZM198.507 52.2573C198.507 52.8858 198.727 53.42 199.166 53.8597C199.607 54.2996 200.141 54.5196 200.769 54.5196C201.398 54.5196 201.932 54.2996 202.372 53.8597C202.811 53.42 203.031 52.8858 203.031 52.2573C203.031 51.6288 202.811 51.0947 202.372 50.6548C201.932 50.2147 201.398 49.9948 200.769 49.9948C200.141 49.9948 199.607 50.2147 199.166 50.6548C198.727 51.0947 198.507 51.6288 198.507 52.2573ZM192.851 62.4382C192.851 63.0666 193.071 63.6008 193.51 64.0408C193.95 64.4806 194.485 64.7006 195.113 64.7006C195.742 64.7006 196.276 64.4806 196.716 64.0408C197.156 63.6008 197.375 63.0666 197.375 62.4382C197.375 61.8097 197.156 61.2754 196.716 60.8355C196.276 60.3956 195.742 60.1756 195.113 60.1756C194.485 60.1756 193.95 60.3956 193.51 60.8355C193.071 61.2754 192.851 61.8097 192.851 62.4382ZM188.326 57.9132C188.326 57.285 188.546 56.7506 188.986 56.3107C189.426 55.8708 189.96 55.6509 190.588 55.6509C191.217 55.6509 191.751 55.8708 192.191 56.3107C192.631 56.7506 192.851 57.285 192.851 57.9132C192.851 58.5417 192.631 59.0757 192.191 59.5159C191.751 59.9559 191.217 60.1756 190.588 60.1756C189.96 60.1756 189.426 59.9559 188.986 59.5159C188.546 59.0757 188.326 58.5417 188.326 57.9132ZM198.507 63.5694C198.507 64.1978 198.727 64.7321 199.166 65.1717C199.607 65.6117 200.141 65.8317 200.769 65.8317C201.398 65.8317 201.932 65.6117 202.372 65.1717C202.811 64.7321 203.031 64.1978 203.031 63.5694C203.031 62.941 202.811 62.4066 202.372 61.9668C201.932 61.5269 201.398 61.3069 200.769 61.3069C200.141 61.3069 199.607 61.5269 199.166 61.9668C198.727 62.4066 198.507 62.941 198.507 63.5694ZM198.507 40.9454C198.507 41.5737 198.727 42.1079 199.166 42.5476C199.607 42.9876 200.141 43.2076 200.769 43.2076C201.398 43.2076 201.932 42.9876 202.372 42.5476C202.811 42.1079 203.031 41.5737 203.031 40.9454C203.031 40.3169 202.811 39.7825 202.372 39.3427C201.932 38.9028 201.398 38.6828 200.769 38.6828C200.141 38.6828 199.607 38.9028 199.166 39.3427C198.727 39.7825 198.507 40.3169 198.507 40.9454ZM192.851 52.2573C192.851 52.8858 193.071 53.42 193.51 53.8597C193.95 54.2996 194.485 54.5196 195.113 54.5196C195.742 54.5196 196.276 54.2996 196.716 53.8597C197.156 53.42 197.375 52.8858 197.375 52.2573C197.375 51.6288 197.156 51.0947 196.716 50.6548C196.276 50.2147 195.742 49.9948 195.113 49.9948C194.485 49.9948 193.95 50.2147 193.51 50.6548C193.071 51.0947 192.851 51.6288 192.851 52.2573ZM192.851 42.0763C192.851 41.4478 193.071 40.9138 193.51 40.4739C193.95 40.0341 194.485 39.8141 195.113 39.8141C195.742 39.8141 196.276 40.0341 196.716 40.4739C197.156 40.9138 197.375 41.4478 197.375 42.0763C197.375 42.705 197.156 43.2389 196.716 43.679C196.276 44.1189 195.742 44.3387 195.113 44.3387C194.485 44.3387 193.95 44.1189 193.51 43.679C193.071 43.2389 192.851 42.705 192.851 42.0763Z" fill="#E59632"/>
<path fill-rule="evenodd" clip-rule="evenodd" d="M15.3453 43.5268H22.6354L32.3596 83.0468C32.8758 85.1441 26.0114 86.6062 18.9785 86.5161C11.9458 86.6062 5.10526 85.1441 5.62121 83.0468L15.3453 43.5268Z" fill="#E59632"/>
<path fill-rule="evenodd" clip-rule="evenodd" d="M15.9737 43.8853L21.9963 43.8797L29.8533 81.5042C30.1622 82.984 25.2673 85.2781 18.9946 85.1978C12.7221 85.2781 7.79997 83.2174 8.12939 81.6319L15.9737 43.8853Z" fill="white"/>
<path d="M14.5894 42.204C14.5894 45.183 23.3673 45.183 23.3673 42.204M19.4036 43.0268C16.9819 43.0268 14.4625 42.7765 14.5933 42.1219C14.7875 41.1494 23.2054 41.1497 23.3636 42.1219C23.4708 42.7809 21.8256 43.0268 19.4036 43.0268Z" stroke="#E59632" stroke-width="0.755867" stroke-miterlimit="22.9256"/>
<path fill-rule="evenodd" clip-rule="evenodd" d="M18.9799 41.3928C21.4027 41.3928 23.3668 41.7606 23.3668 42.2147C23.3668 42.669 21.4027 43.037 18.9799 43.037C16.5569 43.037 14.5928 42.669 14.5928 42.2147C14.5928 41.7606 16.5569 41.3928 18.9799 41.3928Z" fill="white"/>
<path fill-rule="evenodd" clip-rule="evenodd" d="M18.9786 41.8615C20.8772 41.8615 22.4161 42.0726 22.4161 42.3329C22.4161 42.593 20.8772 42.804 18.9786 42.804C17.0804 42.804 15.5415 42.593 15.5415 42.3329C15.5415 42.0726 17.0804 41.8615 18.9786 41.8615Z" fill="#E59632"/>
<path fill-rule="evenodd" clip-rule="evenodd" d="M31.6646 15.6861C24.8433 16.436 24.6377 -3.39284 11.6187 9.32063C11.9998 0.617219 22.9439 -2.28444 29.9502 1.86368C36.9564 6.01185 38.6784 14.9155 31.6646 15.6861Z" fill="#55C5D0"/>
<path fill-rule="evenodd" clip-rule="evenodd" d="M20.7483 31.7182C23.6293 25.4899 40.715 35.5545 36.5522 17.8402C43.808 22.6615 40.6407 33.5319 33.4702 37.389C26.2997 41.2462 17.7861 38.1223 20.7483 31.7182Z" fill="#E59632"/>
<path fill-rule="evenodd" clip-rule="evenodd" d="M11.5174 13.2448C15.9096 18.9804 -1.83907 29.971 16.707 34.7697C8.6599 39.1693 0.0821812 30.8926 0.000696271 22.3211C-0.0807461 13.7498 7.001 7.34714 11.5174 13.2448Z" fill="#2B5FA7"/>
</svg>
