<svg width="42" height="40" viewBox="0 0 42 40" fill="none" xmlns="http://www.w3.org/2000/svg">
<path fill-rule="evenodd" clip-rule="evenodd" d="M32.3612 15.9787C25.3682 16.7432 25.1571 -3.45689 11.8096 9.494C12.1994 0.629485 23.4208 -2.32705 30.6027 1.89802C37.7864 6.12477 39.5516 15.1939 32.3612 15.9787Z" fill="#55C5D0"/>
<path fill-rule="evenodd" clip-rule="evenodd" d="M21.189 32.476C24.1301 26.1075 41.5732 36.3997 37.3234 18.2857C44.7295 23.2162 41.4969 34.3317 34.1755 38.2758C26.8559 42.2198 18.1632 39.0245 21.189 32.476Z" fill="#FF9000"/>
<path fill-rule="evenodd" clip-rule="evenodd" d="M11.8184 13.3792C16.325 19.2273 -1.88712 30.4341 17.1429 35.3273C8.88614 39.8141 0.0842001 31.3738 0.000713046 22.6339C-0.0827741 13.8939 7.18402 7.36521 11.8184 13.3792Z" fill="#2B5FA7"/>
</svg>
