<svg width="232" height="40" viewBox="0 0 232 40" fill="none" xmlns="http://www.w3.org/2000/svg">
<path d="M72.2764 33.7564H88.4547L87.705 28.717H72.2967L72.2764 33.7564ZM108.132 10.5815H124.311V5.9469H108.132V10.5815ZM108.132 22.169H124.311V17.5343H108.132V22.169ZM108.132 33.7564H124.311V29.1218H108.132V33.7564ZM155.55 33.7564H160.172V5.9469H156.628L143.993 17.07V22.169H148.615V19.1943L155.55 13.0919V33.7564ZM179.856 27.9618H191.411V33.7564H196.034V19.8508C196.034 15.9883 194.448 12.7058 191.277 10.0033C188.105 7.29902 184.298 5.9469 179.856 5.9469V10.5815C182.037 10.6598 184.068 11.1734 185.942 12.1275C187.996 13.1565 189.524 14.5597 190.525 16.337C191.115 17.4442 191.411 18.616 191.411 19.8508V23.3272H179.856V27.9618ZM215.717 10.5815H231.895V5.9469H215.717V10.5815ZM215.717 22.169H231.895V17.5343H215.717V22.169ZM215.717 33.7564H231.895V29.1218H215.717V33.7564Z" fill="white"/>
<path d="M55.1338 25.6454C55.1338 26.2883 55.3588 26.8359 55.8056 27.2866C56.254 27.7373 56.7989 27.9618 57.4402 27.9618C58.0798 27.9618 58.6247 27.7373 59.0731 27.2866C59.5215 26.8359 59.7449 26.2883 59.7449 25.6454C59.7449 25.0008 59.5215 24.4548 59.0731 24.0041C58.6247 23.5534 58.0798 23.3272 57.4402 23.3272C56.7989 23.3272 56.254 23.5534 55.8056 24.0041C55.3588 24.4548 55.1338 25.0008 55.1338 25.6454ZM55.1338 14.0579C55.1338 14.7025 55.3588 15.2485 55.8056 15.6992C56.254 16.1499 56.7989 16.3744 57.4402 16.3744C58.0798 16.3744 58.6247 16.1499 59.0731 15.6992C59.5215 15.2485 59.7449 14.7025 59.7449 14.0579C59.7449 13.415 59.5215 12.8674 59.0731 12.4167C58.6247 11.966 58.0798 11.7398 57.4402 11.7398C56.7989 11.7398 56.254 11.966 55.8056 12.4167C55.3588 12.8674 55.1338 13.415 55.1338 14.0579ZM55.1338 8.26507C55.1338 8.90796 55.3588 9.45562 55.8056 9.90632C56.254 10.357 56.7989 10.5815 57.4402 10.5815C58.0798 10.5815 58.6247 10.357 59.0731 9.90632C59.5215 9.45562 59.7449 8.90796 59.7449 8.26507C59.7449 7.62047 59.5215 7.07282 59.0731 6.62211C58.2423 5.78703 56.4147 6.01153 55.8056 6.62211C55.3588 7.07282 55.1338 7.62047 55.1338 8.26507ZM55.1338 19.8508C55.1338 20.4954 55.3588 21.0431 55.8056 21.4921C56.254 21.9428 56.7989 22.169 57.4402 22.169C58.0798 22.169 58.6247 21.9428 59.0731 21.4921C59.5215 21.0431 59.7449 20.4954 59.7449 19.8508C59.7449 19.2079 59.5215 18.6603 59.0731 18.2096C58.6247 17.7588 58.0798 17.5343 57.4402 17.5343C56.7989 17.5343 56.254 17.7588 55.8056 18.2096C55.3588 18.6603 55.1338 19.2079 55.1338 19.8508ZM66.6624 31.4382C66.6624 32.0828 66.8858 32.6288 67.3342 33.0795C67.7826 33.5302 68.3275 33.7564 68.9671 33.7564C69.6084 33.7564 70.1533 33.5302 70.6017 33.0795C71.0501 32.6288 71.2735 32.0828 71.2735 31.4382C71.2735 30.7954 71.0501 30.2477 70.6017 29.797C70.1533 29.3463 69.6084 29.1218 68.9671 29.1218C68.3275 29.1218 67.7826 29.3463 67.3342 29.797C66.8858 30.2477 66.6624 30.7954 66.6624 31.4382ZM55.1338 31.4382C55.1338 32.0828 55.3588 32.6288 55.8056 33.0795C56.254 33.5302 56.7989 33.7564 57.4402 33.7564C58.0798 33.7564 58.6247 33.5302 59.0731 33.0795C59.5215 32.6288 59.7449 32.0828 59.7449 31.4382C59.7449 30.7954 59.5215 30.2477 59.0731 29.797C58.6247 29.3463 58.0798 29.1218 57.4402 29.1218C56.7989 29.1218 56.254 29.3463 55.8056 29.797C55.3588 30.2477 55.1338 30.7954 55.1338 31.4382ZM60.8973 31.4382C60.8973 32.0828 61.1223 32.6288 61.5707 33.0795C62.0191 33.5302 62.564 33.7564 63.2037 33.7564C63.8433 33.7564 64.3882 33.5302 64.8366 33.0795C65.285 32.6288 65.5101 32.0828 65.5101 31.4382C65.5101 30.7954 65.285 30.2477 64.8366 29.797C64.3882 29.3463 63.8433 29.1218 63.2037 29.1218C62.564 29.1218 62.0191 29.3463 61.5707 29.797C61.1223 30.2477 60.8973 30.7954 60.8973 31.4382ZM90.9041 19.8508C90.9041 20.4954 91.1275 21.0431 91.5759 21.4921C92.0243 21.9428 92.5692 22.169 93.2088 22.169C93.8502 22.169 94.3934 21.9428 94.8418 21.4921C95.2902 21.0431 95.5152 20.4954 95.5152 19.8508C95.5152 19.2079 95.2902 18.6603 94.8418 18.2096C94.3934 17.7588 93.8502 17.5343 93.2088 17.5343C92.5692 17.5343 92.0243 17.7588 91.5759 18.2096C91.1275 18.6603 90.9041 19.2079 90.9041 19.8508ZM92.0565 14.0579C92.0565 14.7025 92.2799 15.2485 92.7283 15.6992C93.1767 16.1499 93.7216 16.3744 94.3629 16.3744C95.0025 16.3744 95.5474 16.1499 95.9958 15.6992C96.4442 15.2485 96.6676 14.7025 96.6676 14.0579C96.6676 13.415 96.4442 12.8674 95.9958 12.4167C95.5474 11.966 95.0025 11.7398 94.3629 11.7398C93.7216 11.7398 93.1767 11.966 92.7283 12.4167C92.2799 12.8674 92.0565 13.415 92.0565 14.0579ZM102.431 19.8508C102.431 20.4954 102.656 21.0431 103.105 21.4921C103.553 21.9428 104.098 22.169 104.737 22.169C105.377 22.169 105.922 21.9428 106.37 21.4921C106.819 21.0431 107.044 20.4954 107.044 19.8508C107.044 19.2079 106.819 18.6603 106.37 18.2096C105.922 17.7588 105.377 17.5343 104.737 17.5343C104.098 17.5343 103.553 17.7588 103.105 18.2096C102.656 18.6603 102.431 19.2079 102.431 19.8508ZM96.6676 30.28C96.6676 30.9229 96.8927 31.4706 97.3394 31.9213C97.7878 32.372 98.3327 32.5982 98.974 32.5982C99.6136 32.5982 100.159 32.372 100.607 31.9213C101.055 31.4706 101.279 30.9229 101.279 30.28C101.279 29.6354 101.055 29.0895 100.607 28.6388C100.159 28.1881 99.6136 27.9618 98.974 27.9618C98.3327 27.9618 97.7878 28.1881 97.3394 28.6388C96.8927 29.0895 96.6676 29.6354 96.6676 30.28ZM92.0565 25.6454C92.0565 25.0008 92.2799 24.4548 92.7283 24.0041C93.1767 23.5534 93.7216 23.3272 94.3629 23.3272C95.0025 23.3272 95.5474 23.5534 95.9958 24.0041C96.4442 24.4548 96.6676 25.0008 96.6676 25.6454C96.6676 26.2883 96.4442 26.8359 95.9958 27.2866C95.5474 27.7373 95.0025 27.9618 94.3629 27.9618C93.7216 27.9618 93.1767 27.7373 92.7283 27.2866C92.2799 26.8359 92.0565 26.2883 92.0565 25.6454ZM102.431 31.4382C102.431 32.0828 102.656 32.6288 103.105 33.0795C103.553 33.5302 104.098 33.7564 104.737 33.7564C105.377 33.7564 105.922 33.5302 106.37 33.0795C106.819 32.6288 107.044 32.0828 107.044 31.4382C107.044 30.7954 106.819 30.2477 106.37 29.797C105.922 29.3463 105.377 29.1218 104.737 29.1218C104.098 29.1218 103.553 29.3463 103.105 29.797C102.656 30.2477 102.431 30.7954 102.431 31.4382ZM102.431 8.26507C102.431 8.90796 102.656 9.45562 103.105 9.90632C103.553 10.357 104.098 10.5815 104.737 10.5815C105.377 10.5815 105.922 10.357 106.37 9.90632C106.819 9.45562 107.044 8.90796 107.044 8.26507C107.044 7.62047 106.819 7.07282 106.37 6.62211C105.922 6.1714 105.377 5.9469 104.737 5.9469C104.098 5.9469 103.553 6.1714 103.105 6.62211C102.656 7.07282 102.431 7.62047 102.431 8.26507ZM96.6676 19.8508C96.6676 20.4954 96.8927 21.0431 97.3394 21.4921C97.7878 21.9428 98.3327 22.169 98.974 22.169C99.6136 22.169 100.159 21.9428 100.607 21.4921C101.055 21.0431 101.279 20.4954 101.279 19.8508C101.279 19.2079 101.055 18.6603 100.607 18.2096C100.159 17.7588 99.6136 17.5343 98.974 17.5343C98.3327 17.5343 97.7878 17.7588 97.3394 18.2096C96.8927 18.6603 96.6676 19.2079 96.6676 19.8508ZM96.6676 9.4233C96.6676 8.77871 96.8927 8.23275 97.3394 7.78205C97.7878 7.33134 98.3327 7.10513 98.974 7.10513C99.6136 7.10513 100.159 7.33134 100.607 7.78205C101.055 8.23275 101.279 8.77871 101.279 9.4233C101.279 10.0662 101.055 10.6139 100.607 11.0646C100.159 11.5153 99.6136 11.7398 98.974 11.7398C98.3327 11.7398 97.7878 11.5153 97.3394 11.0646C96.8927 10.6139 96.6676 10.0662 96.6676 9.4233ZM134.749 14.0579C134.749 14.7025 134.973 15.2485 135.421 15.6992C135.87 16.1499 136.415 16.3744 137.056 16.3744C137.695 16.3744 138.24 16.1499 138.689 15.6992C139.137 15.2485 139.361 14.7025 139.361 14.0579C139.361 13.415 139.137 12.8674 138.689 12.4167C138.24 11.966 137.695 11.7398 137.056 11.7398C136.415 11.7398 135.87 11.966 135.421 12.4167C134.973 12.8674 134.749 13.415 134.749 14.0579ZM126.68 25.6454C126.68 26.2883 126.903 26.8359 127.351 27.2866C127.8 27.7373 128.345 27.9618 128.986 27.9618C129.626 27.9618 130.17 27.7373 130.619 27.2866C131.067 26.8359 131.291 26.2883 131.291 25.6454C131.291 25.0008 131.067 24.4548 130.619 24.0041C130.17 23.5534 129.626 23.3272 128.986 23.3272C128.345 23.3272 127.8 23.5534 127.351 24.0041C126.903 24.4548 126.68 25.0008 126.68 25.6454ZM138.208 19.8508C138.208 20.4954 138.432 21.0431 138.88 21.4921C139.328 21.9428 139.873 22.169 140.513 22.169C141.154 22.169 141.699 21.9428 142.146 21.4921C142.596 21.0431 142.819 20.4954 142.819 19.8508C142.819 19.2079 142.596 18.6603 142.146 18.2096C141.699 17.7588 141.154 17.5343 140.513 17.5343C139.873 17.5343 139.328 17.7588 138.88 18.2096C138.432 18.6603 138.208 19.2079 138.208 19.8508ZM126.68 8.26507C126.68 8.90796 126.903 9.45562 127.351 9.90632C127.8 10.357 128.345 10.5815 128.986 10.5815C129.626 10.5815 130.17 10.357 130.619 9.90632C131.067 9.45562 131.291 8.90796 131.291 8.26507C131.291 7.62047 131.067 7.07282 130.619 6.62211C130.17 6.1714 129.626 5.9469 128.986 5.9469C128.345 5.9469 127.8 6.1714 127.351 6.62211C126.903 7.07282 126.68 7.62047 126.68 8.26507ZM126.68 31.4382C126.68 32.0828 126.903 32.6288 127.351 33.0795C127.8 33.5302 128.345 33.7564 128.986 33.7564C129.626 33.7564 130.17 33.5302 130.619 33.0795C131.067 32.6288 131.291 32.0828 131.291 31.4382C131.291 30.7954 131.067 30.2477 130.619 29.797C130.17 29.3463 129.626 29.1218 128.986 29.1218C128.345 29.1218 127.8 29.3463 127.351 29.797C126.903 30.2477 126.68 30.7954 126.68 31.4382ZM126.68 19.8508C126.68 20.4954 126.903 21.0431 127.351 21.4921C127.8 21.9428 128.345 22.169 128.986 22.169C129.626 22.169 130.17 21.9428 130.619 21.4921C131.067 21.0431 131.291 20.4954 131.291 19.8508C131.291 19.2079 131.067 18.6603 130.619 18.2096C130.17 17.7588 129.626 17.5343 128.986 17.5343C128.345 17.5343 127.8 17.7588 127.351 18.2096C126.903 18.6603 126.68 19.2079 126.68 19.8508ZM126.68 14.0579C126.68 14.7025 126.903 15.2485 127.351 15.6992C127.8 16.1499 128.345 16.3744 128.986 16.3744C129.626 16.3744 130.17 16.1499 130.619 15.6992C131.067 15.2485 131.291 14.7025 131.291 14.0579C131.291 13.415 131.067 12.8674 130.619 12.4167C130.17 11.966 129.626 11.7398 128.986 11.7398C128.345 11.7398 127.8 11.966 127.351 12.4167C126.903 12.8674 126.68 13.415 126.68 14.0579ZM132.443 8.26507C132.443 8.90796 132.668 9.45562 133.117 9.90632C133.565 10.357 134.11 10.5815 134.749 10.5815C135.389 10.5815 135.934 10.357 136.382 9.90632C136.831 9.45562 137.056 8.90796 137.056 8.26507C137.056 7.62047 136.831 7.07282 136.382 6.62211C135.934 6.1714 135.389 5.9469 134.749 5.9469C134.11 5.9469 133.565 6.1714 133.117 6.62211C132.668 7.07282 132.443 7.62047 132.443 8.26507ZM163.609 14.0579C163.609 14.7025 163.832 15.2485 164.281 15.6992C164.729 16.1499 165.274 16.3744 165.914 16.3744C166.555 16.3744 167.1 16.1499 167.547 15.6992C167.995 15.2485 168.22 14.7025 168.22 14.0579C168.22 13.415 167.995 12.8674 167.547 12.4167C167.1 11.966 166.555 11.7398 165.914 11.7398C165.274 11.7398 164.729 11.966 164.281 12.4167C163.832 12.8674 163.609 13.415 163.609 14.0579ZM173.984 8.26507C173.984 8.90796 174.209 9.45562 174.657 9.90632C175.106 10.357 175.649 10.5815 176.29 10.5815C176.93 10.5815 177.475 10.357 177.923 9.90632C178.371 9.45562 178.595 8.90796 178.595 8.26507C178.595 7.62047 178.371 7.07282 177.923 6.62211C177.475 6.1714 176.93 5.9469 176.29 5.9469C175.649 5.9469 175.106 6.1714 174.657 6.62211C174.209 7.07282 173.984 7.62047 173.984 8.26507ZM162.455 25.6454C162.455 26.2883 162.68 26.8359 163.128 27.2866C163.577 27.7373 164.12 27.9618 164.761 27.9618C165.401 27.9618 165.946 27.7373 166.394 27.2866C166.843 26.8359 167.068 26.2883 167.068 25.6454C167.068 25.0008 166.843 24.4548 166.394 24.0041C165.946 23.5534 165.401 23.3272 164.761 23.3272C164.12 23.3272 163.577 23.5534 163.128 24.0041C162.68 24.4548 162.455 25.0008 162.455 25.6454ZM162.455 31.4382C162.455 32.0828 162.68 32.6288 163.128 33.0795C163.577 33.5302 164.12 33.7564 164.761 33.7564C165.401 33.7564 165.946 33.5302 166.394 33.0795C166.843 32.6288 167.068 32.0828 167.068 31.4382C167.068 30.7954 166.843 30.2477 166.394 29.797C165.946 29.3463 165.401 29.1218 164.761 29.1218C164.12 29.1218 163.577 29.3463 163.128 29.797C162.68 30.2477 162.455 30.7954 162.455 31.4382ZM168.22 9.4233C168.22 8.77871 168.444 8.23275 168.892 7.78205C169.34 7.33134 169.885 7.10513 170.525 7.10513C171.166 7.10513 171.711 7.33134 172.159 7.78205C172.608 8.23275 172.831 8.77871 172.831 9.4233C172.395 10.9676 171.626 11.7398 170.525 11.7398C169.885 11.7398 169.34 11.5153 168.892 11.0646C168.444 10.6139 168.22 10.0662 168.22 9.4233ZM162.455 19.8508C162.455 20.4954 162.68 21.0431 163.128 21.4921C163.577 21.9428 164.12 22.169 164.761 22.169C165.401 22.169 165.946 21.9428 166.394 21.4921C166.843 21.0431 167.068 20.4954 167.068 19.8508C167.068 19.2079 166.843 18.6603 166.394 18.2096C165.946 17.7588 165.401 17.5343 164.761 17.5343C164.12 17.5343 163.577 17.7588 163.128 18.2096C162.68 18.6603 162.455 19.2079 162.455 19.8508ZM168.22 25.6454C168.22 26.2883 168.444 26.8359 168.892 27.2866C169.34 27.7373 169.885 27.9618 170.525 27.9618C171.166 27.9618 171.711 27.7373 172.159 27.2866C172.608 26.8359 172.831 26.2883 172.831 25.6454C172.831 25.0008 172.608 24.4548 172.159 24.0041C171.711 23.5534 171.166 23.3272 170.525 23.3272C169.885 23.3272 169.34 23.5534 168.892 24.0041C168.444 24.4548 168.22 25.0008 168.22 25.6454ZM173.984 25.6454C173.984 26.2883 174.209 26.8359 174.657 27.2866C175.106 27.7373 175.649 27.9618 176.29 27.9618C176.93 27.9618 177.475 27.7373 177.923 27.2866C178.371 26.8359 178.595 26.2883 178.595 25.6454C178.595 25.0008 178.371 24.4548 177.923 24.0041C177.475 23.5534 176.93 23.3272 176.29 23.3272C175.649 23.3272 175.106 23.5534 174.657 24.0041C174.209 24.4548 173.984 25.0008 173.984 25.6454ZM198.232 19.8508C198.232 20.4954 198.455 21.0431 198.904 21.4921C199.352 21.9428 199.897 22.169 200.537 22.169C201.178 22.169 201.723 21.9428 202.17 21.4921C202.618 21.0431 202.843 20.4954 202.843 19.8508C202.843 19.2079 202.618 18.6603 202.17 18.2096C201.723 17.7588 201.178 17.5343 200.537 17.5343C199.897 17.5343 199.352 17.7588 198.904 18.2096C198.455 18.6603 198.232 19.2079 198.232 19.8508ZM199.384 14.0579C199.384 14.7025 199.61 15.2485 200.056 15.6992C200.505 16.1499 201.05 16.3744 201.691 16.3744C202.331 16.3744 202.875 16.1499 203.324 15.6992C203.772 15.2485 203.996 14.7025 203.996 14.0579C203.996 13.415 203.772 12.8674 203.324 12.4167C202.875 11.966 202.331 11.7398 201.691 11.7398C201.05 11.7398 200.505 11.966 200.056 12.4167C199.61 12.8674 199.384 13.415 199.384 14.0579ZM209.761 19.8508C209.761 20.4954 209.984 21.0431 210.433 21.4921C210.881 21.9428 211.426 22.169 212.065 22.169C212.707 22.169 213.25 21.9428 213.698 21.4921C214.147 21.0431 214.372 20.4954 214.372 19.8508C214.372 19.2079 214.147 18.6603 213.698 18.2096C213.25 17.7588 212.707 17.5343 212.065 17.5343C211.426 17.5343 210.881 17.7588 210.433 18.2096C209.984 18.6603 209.761 19.2079 209.761 19.8508ZM203.996 30.28C203.996 30.9229 204.221 31.4706 204.669 31.9213C205.117 32.372 205.661 32.5982 206.302 32.5982C206.942 32.5982 207.486 32.372 207.935 31.9213C208.383 31.4706 208.607 30.9229 208.607 30.28C208.607 29.6354 208.383 29.0895 207.935 28.6388C207.486 28.1881 206.942 27.9618 206.302 27.9618C205.661 27.9618 205.117 28.1881 204.669 28.6388C204.221 29.0895 203.996 29.6354 203.996 30.28ZM199.384 25.6454C199.384 25.0008 199.61 24.4548 200.056 24.0041C200.505 23.5534 201.05 23.3272 201.691 23.3272C202.331 23.3272 202.875 23.5534 203.324 24.0041C203.772 24.4548 203.996 25.0008 203.996 25.6454C203.996 26.2883 203.772 26.8359 203.324 27.2866C202.875 27.7373 202.331 27.9618 201.691 27.9618C201.05 27.9618 200.505 27.7373 200.056 27.2866C199.61 26.8359 199.384 26.2883 199.384 25.6454ZM209.761 31.4382C209.761 32.0828 209.984 32.6288 210.433 33.0795C210.881 33.5302 211.426 33.7564 212.065 33.7564C212.707 33.7564 213.25 33.5302 213.698 33.0795C214.147 32.6288 214.372 32.0828 214.372 31.4382C214.372 30.7954 214.147 30.2477 213.698 29.797C213.25 29.3463 212.707 29.1218 212.065 29.1218C211.426 29.1218 210.881 29.3463 210.433 29.797C209.984 30.2477 209.761 30.7954 209.761 31.4382ZM209.761 8.26507C209.761 8.90796 209.984 9.45562 210.433 9.90632C210.881 10.357 211.426 10.5815 212.065 10.5815C212.707 10.5815 213.25 10.357 213.698 9.90632C214.147 9.45562 214.372 8.90796 214.372 8.26507C214.372 7.62047 214.147 7.07282 213.698 6.62211C213.25 6.1714 212.707 5.9469 212.065 5.9469C211.426 5.9469 210.881 6.1714 210.433 6.62211C209.984 7.07282 209.761 7.62047 209.761 8.26507ZM203.996 19.8508C203.996 20.4954 204.221 21.0431 204.669 21.4921C205.117 21.9428 205.661 22.169 206.302 22.169C206.942 22.169 207.486 21.9428 207.935 21.4921C208.383 21.0431 208.607 20.4954 208.607 19.8508C208.607 19.2079 208.383 18.6603 207.935 18.2096C207.486 17.7588 206.942 17.5343 206.302 17.5343C205.661 17.5343 205.117 17.7588 204.669 18.2096C204.221 18.6603 203.996 19.2079 203.996 19.8508ZM203.996 9.4233C203.996 8.77871 204.221 8.23275 204.669 7.78205C205.117 7.33134 205.661 7.10513 206.302 7.10513C206.942 7.10513 207.486 7.33134 207.935 7.78205C208.383 8.23275 208.607 8.77871 208.607 9.4233C208.607 10.0662 208.383 10.6139 207.935 11.0646C207.486 11.5153 206.942 11.7398 206.302 11.7398C205.661 11.7398 205.117 11.5153 204.669 11.0646C204.221 10.6139 203.996 10.0662 203.996 9.4233Z" fill="white"/>
<path fill-rule="evenodd" clip-rule="evenodd" d="M32.3612 15.9788C25.3682 16.7433 25.1571 -3.45682 11.8096 9.49406C12.1994 0.629546 23.4208 -2.32698 30.6027 1.89808C37.7864 6.12483 39.5516 15.194 32.3612 15.9788Z" fill="white"/>
<path fill-rule="evenodd" clip-rule="evenodd" d="M21.189 32.4761C24.1301 26.1076 41.5732 36.3997 37.3234 18.2858C44.7295 23.2162 41.4969 34.3318 34.1755 38.2758C26.8559 42.2198 18.1632 39.0246 21.189 32.4761Z" fill="white"/>
<path fill-rule="evenodd" clip-rule="evenodd" d="M11.8184 13.3793C16.325 19.2273 -1.88712 30.4342 17.1429 35.3273C8.88614 39.8141 0.0842001 31.3739 0.000713046 22.6339C-0.0827741 13.894 7.18402 7.36528 11.8184 13.3793Z" fill="white"/>
</svg>
