<svg width="124" height="124" viewBox="0 0 124 124" fill="none" xmlns="http://www.w3.org/2000/svg">
<g clip-path="url(#clip0_115_140)">
<path d="M91.0006 80.166C98.5049 69.9259 101.866 57.2298 100.411 44.6179C98.957 32.0061 92.7941 20.4084 83.1558 12.1453C73.5175 3.88218 61.1147 -0.437026 48.4286 0.0517909C35.7425 0.540608 23.7088 5.8014 14.735 14.7817C5.7611 23.762 0.508914 35.7994 0.0291747 48.4859C-0.450564 61.1723 3.87752 73.572 12.1475 83.2044C20.4175 92.8367 32.0196 98.9913 44.6325 100.437C57.2454 101.882 69.9391 98.5121 80.1739 91.0005H80.1661C80.3986 91.3105 80.6466 91.605 80.9256 91.8918L110.763 121.729C112.216 123.184 114.188 124.001 116.244 124.002C118.299 124.002 120.271 123.186 121.725 121.733C123.18 120.28 123.997 118.309 123.998 116.253C123.999 114.197 123.183 112.225 121.729 110.771L91.8919 80.9333C91.6148 80.6528 91.3168 80.3937 91.0006 80.1583V80.166ZM93.0001 50.375C93.0001 55.9726 91.8976 61.5154 89.7555 66.6869C87.6134 71.8584 84.4736 76.5574 80.5155 80.5155C76.5574 84.4736 71.8585 87.6133 66.687 89.7554C61.5155 91.8975 55.9727 93 50.3751 93C44.7775 93 39.2347 91.8975 34.0632 89.7554C28.8917 87.6133 24.1928 84.4736 20.2347 80.5155C16.2766 76.5574 13.1369 71.8584 10.9948 66.6869C8.85265 61.5154 7.75012 55.9726 7.75012 50.375C7.75012 39.0702 12.241 28.2284 20.2347 20.2346C28.2284 12.2409 39.0703 7.75005 50.3751 7.75005C61.68 7.75005 72.5218 12.2409 80.5155 20.2346C88.5093 28.2284 93.0001 39.0702 93.0001 50.375Z" fill="#FF9000"/>
</g>
<defs>
<clipPath id="clip0_115_140">
<rect width="124" height="124" fill="white"/>
</clipPath>
</defs>
</svg>
