<svg width="124" height="124" viewBox="0 0 124 124" fill="none" xmlns="http://www.w3.org/2000/svg">
<path d="M31 19.375C31 18.3473 31.4083 17.3617 32.135 16.635C32.8617 15.9083 33.8473 15.5 34.875 15.5H42.625C43.6527 15.5 44.6383 15.9083 45.365 16.635C46.0917 17.3617 46.5 18.3473 46.5 19.375V27.125C46.5 28.1527 46.0917 29.1383 45.365 29.865C44.6383 30.5917 43.6527 31 42.625 31H34.875C33.8473 31 32.8617 30.5917 32.135 29.865C31.4083 29.1383 31 28.1527 31 27.125V19.375ZM54.25 19.375C54.25 18.3473 54.6583 17.3617 55.385 16.635C56.1117 15.9083 57.0973 15.5 58.125 15.5H65.875C66.9027 15.5 67.8883 15.9083 68.615 16.635C69.3417 17.3617 69.75 18.3473 69.75 19.375V27.125C69.75 28.1527 69.3417 29.1383 68.615 29.865C67.8883 30.5917 66.9027 31 65.875 31H58.125C57.0973 31 56.1117 30.5917 55.385 29.865C54.6583 29.1383 54.25 28.1527 54.25 27.125V19.375ZM81.375 15.5C80.3473 15.5 79.3617 15.9083 78.635 16.635C77.9083 17.3617 77.5 18.3473 77.5 19.375V27.125C77.5 28.1527 77.9083 29.1383 78.635 29.865C79.3617 30.5917 80.3473 31 81.375 31H89.125C90.1527 31 91.1383 30.5917 91.865 29.865C92.5917 29.1383 93 28.1527 93 27.125V19.375C93 18.3473 92.5917 17.3617 91.865 16.635C91.1383 15.9083 90.1527 15.5 89.125 15.5H81.375ZM31 42.625C31 41.5973 31.4083 40.6117 32.135 39.885C32.8617 39.1583 33.8473 38.75 34.875 38.75H42.625C43.6527 38.75 44.6383 39.1583 45.365 39.885C46.0917 40.6117 46.5 41.5973 46.5 42.625V50.375C46.5 51.4027 46.0917 52.3883 45.365 53.115C44.6383 53.8417 43.6527 54.25 42.625 54.25H34.875C33.8473 54.25 32.8617 53.8417 32.135 53.115C31.4083 52.3883 31 51.4027 31 50.375V42.625ZM58.125 38.75C57.0973 38.75 56.1117 39.1583 55.385 39.885C54.6583 40.6117 54.25 41.5973 54.25 42.625V50.375C54.25 51.4027 54.6583 52.3883 55.385 53.115C56.1117 53.8417 57.0973 54.25 58.125 54.25H65.875C66.9027 54.25 67.8883 53.8417 68.615 53.115C69.3417 52.3883 69.75 51.4027 69.75 50.375V42.625C69.75 41.5973 69.3417 40.6117 68.615 39.885C67.8883 39.1583 66.9027 38.75 65.875 38.75H58.125ZM77.5 42.625C77.5 41.5973 77.9083 40.6117 78.635 39.885C79.3617 39.1583 80.3473 38.75 81.375 38.75H89.125C90.1527 38.75 91.1383 39.1583 91.865 39.885C92.5917 40.6117 93 41.5973 93 42.625V50.375C93 51.4027 92.5917 52.3883 91.865 53.115C91.1383 53.8417 90.1527 54.25 89.125 54.25H81.375C80.3473 54.25 79.3617 53.8417 78.635 53.115C77.9083 52.3883 77.5 51.4027 77.5 50.375V42.625ZM34.875 62C33.8473 62 32.8617 62.4083 32.135 63.135C31.4083 63.8617 31 64.8473 31 65.875V73.625C31 74.6527 31.4083 75.6383 32.135 76.365C32.8617 77.0917 33.8473 77.5 34.875 77.5H42.625C43.6527 77.5 44.6383 77.0917 45.365 76.365C46.0917 75.6383 46.5 74.6527 46.5 73.625V65.875C46.5 64.8473 46.0917 63.8617 45.365 63.135C44.6383 62.4083 43.6527 62 42.625 62H34.875ZM54.25 65.875C54.25 64.8473 54.6583 63.8617 55.385 63.135C56.1117 62.4083 57.0973 62 58.125 62H65.875C66.9027 62 67.8883 62.4083 68.615 63.135C69.3417 63.8617 69.75 64.8473 69.75 65.875V73.625C69.75 74.6527 69.3417 75.6383 68.615 76.365C67.8883 77.0917 66.9027 77.5 65.875 77.5H58.125C57.0973 77.5 56.1117 77.0917 55.385 76.365C54.6583 75.6383 54.25 74.6527 54.25 73.625V65.875ZM81.375 62C80.3473 62 79.3617 62.4083 78.635 63.135C77.9083 63.8617 77.5 64.8473 77.5 65.875V73.625C77.5 74.6527 77.9083 75.6383 78.635 76.365C79.3617 77.0917 80.3473 77.5 81.375 77.5H89.125C90.1527 77.5 91.1383 77.0917 91.865 76.365C92.5917 75.6383 93 74.6527 93 73.625V65.875C93 64.8473 92.5917 63.8617 91.865 63.135C91.1383 62.4083 90.1527 62 89.125 62H81.375Z" fill="#FF9000"/>
<path d="M15.5 7.75C15.5 5.69457 16.3165 3.72333 17.7699 2.26992C19.2233 0.816516 21.1946 0 23.25 0L100.75 0C102.805 0 104.777 0.816516 106.23 2.26992C107.683 3.72333 108.5 5.69457 108.5 7.75V116.25C108.5 118.305 107.683 120.277 106.23 121.73C104.777 123.183 102.805 124 100.75 124H23.25C21.1946 124 19.2233 123.183 17.7699 121.73C16.3165 120.277 15.5 118.305 15.5 116.25V7.75ZM100.75 7.75H23.25V116.25H46.5V96.875C46.5 95.8473 46.9083 94.8617 47.635 94.135C48.3617 93.4083 49.3473 93 50.375 93H73.625C74.6527 93 75.6383 93.4083 76.365 94.135C77.0917 94.8617 77.5 95.8473 77.5 96.875V116.25H100.75V7.75Z" fill="#FF9000"/>
</svg>
