<svg width="144" height="108" viewBox="0 0 144 108" fill="none" xmlns="http://www.w3.org/2000/svg">
<path d="M134.882 108C134.882 108 143.865 108 143.865 99C143.865 90 134.882 63 98.9492 63C63.0168 63 54.0338 90 54.0338 99C54.0338 108 63.0168 108 63.0168 108H134.882ZM63.2145 99C63.1481 98.9908 63.0822 98.9788 63.0168 98.964C63.0258 96.588 64.517 89.694 69.844 83.484C74.8027 77.661 83.5162 72 98.9492 72C114.373 72 123.087 77.67 128.054 83.484C133.381 89.694 134.864 96.597 134.882 98.964L134.81 98.982C134.768 98.9891 134.726 98.9951 134.684 99H63.2145ZM98.9492 45C103.714 45 108.284 43.1036 111.653 39.7279C115.022 36.3523 116.915 31.7739 116.915 27C116.915 22.2261 115.022 17.6477 111.653 14.2721C108.284 10.8964 103.714 9 98.9492 9C94.1842 9 89.6145 10.8964 86.2452 14.2721C82.8759 17.6477 80.983 22.2261 80.983 27C80.983 31.7739 82.8759 36.3523 86.2452 39.7279C89.6145 43.1036 94.1842 45 98.9492 45ZM125.898 27C125.898 30.5457 125.201 34.0567 123.847 37.3325C122.493 40.6082 120.508 43.5847 118.005 46.0919C115.503 48.5991 112.532 50.5879 109.262 51.9447C105.993 53.3016 102.488 54 98.9492 54C95.4101 54 91.9058 53.3016 88.6361 51.9447C85.3665 50.5879 82.3956 48.5991 79.8932 46.0919C77.3907 43.5847 75.4056 40.6082 74.0513 37.3325C72.697 34.0567 71.9999 30.5457 71.9999 27C71.9999 19.8392 74.8392 12.9716 79.8932 7.90812C84.9471 2.84464 91.8018 0 98.9492 0C106.097 0 112.951 2.84464 118.005 7.90812C123.059 12.9716 125.898 19.8392 125.898 27ZM62.4419 65.52C58.8485 64.3863 55.1444 63.6411 51.3927 63.297C49.2847 63.0962 47.1682 62.9971 45.0507 63C9.11834 63 0.135254 90 0.135254 99C0.135254 105.003 3.12662 108 9.11834 108H46.991C45.6593 105.19 44.9952 102.11 45.0507 99C45.0507 89.91 48.4373 80.622 54.8422 72.864C57.0251 70.218 59.5673 67.743 62.4419 65.52ZM44.332 72C39.0154 80.0034 36.1434 89.3864 36.0676 99H9.11834C9.11834 96.66 10.5916 89.73 15.9455 83.484C20.8413 77.76 29.3482 72.18 44.332 72.009V72ZM13.6099 31.5C13.6099 24.3392 16.4492 17.4716 21.5031 12.4081C26.5571 7.34464 33.4117 4.5 40.5591 4.5C47.7065 4.5 54.5612 7.34464 59.6151 12.4081C64.6691 17.4716 67.5084 24.3392 67.5084 31.5C67.5084 38.6608 64.6691 45.5284 59.6151 50.5919C54.5612 55.6554 47.7065 58.5 40.5591 58.5C33.4117 58.5 26.5571 55.6554 21.5031 50.5919C16.4492 45.5284 13.6099 38.6608 13.6099 31.5ZM40.5591 13.5C35.7942 13.5 31.2244 15.3964 27.8551 18.7721C24.4858 22.1477 22.593 26.7261 22.593 31.5C22.593 36.2739 24.4858 40.8523 27.8551 44.2279C31.2244 47.6036 35.7942 49.5 40.5591 49.5C45.3241 49.5 49.8938 47.6036 53.2631 44.2279C56.6324 40.8523 58.5253 36.2739 58.5253 31.5C58.5253 26.7261 56.6324 22.1477 53.2631 18.7721C49.8938 15.3964 45.3241 13.5 40.5591 13.5Z" fill="#FF9000"/>
</svg>
